<?xml version="1.0" encoding="UTF-8"?>
<svg version="1.1" viewBox="0 0 2048 2048" width="2048" height="2048" xmlns="http://www.w3.org/2000/svg">
<path transform="translate(0)" d="m0 0h2048v2048h-2048z" fill="#FEFEFE"/>
<path transform="translate(582,419)" d="m0 0h1026v201h-1048v847h656v200h-644l-22-3-22-5-21-7-20-9-19-11-16-11-13-11-10-9-9-9-9-11-10-13-12-19-11-22-9-25-6-25-3-25v-817l3-25 6-25 7-20 9-20 11-19 10-14 9-11 9-10 15-15 14-11 17-12 20-11 24-10 24-7 21-4z" fill="#FEFEFE"/>
<path transform="translate(575,358)" d="m0 0h1094v323h-1047v725h648v323h-681l-23-1-29-4-25-6-27-9-25-11-23-13-12-8-16-12-14-12-14-13-7-8-10-11-12-16-13-20-12-22-11-26-9-29-5-24-3-26v-829l3-26 6-28 10-30 11-25 12-22 11-16 9-12 9-11 12-13 13-13 11-9 14-11 18-12 16-9 16-8 14-6 19-7 27-7 23-4zm7 61-23 2-25 5-23 7-21 9-23 13-18 13-14 12-18 18-11 14-10 14-9 15-9 19-9 25-6 25-3 25v817l3 25 6 25 7 20 12 25 11 18 12 16 12 14 13 13 11 9 13 10 20 12 16 8 14 6 18 6 22 5 22 3h644v-200h-656v-847h1048v-201z"/>
<path transform="translate(1350,1406)" d="m0 0h319v323h-319z"/>
</svg>
